<mxfile host="app.diagrams.net" modified="2023-02-23T00:52:13.033Z" agent="5.0 (Windows NT 10.0; Win64; x64) AppleWebKit/537.36 (KHTML, like Gecko) Chrome/110.0.0.0 Safari/537.36" etag="aqOaw6Fe0s6D58881z4w" version="20.8.20" type="github">
  <diagram name="Page-1" id="29rnq9pl9VEl-2gg971Q">
    <mxGraphModel dx="2075" dy="669" grid="0" gridSize="10" guides="1" tooltips="1" connect="1" arrows="1" fold="1" page="1" pageScale="1" pageWidth="827" pageHeight="1169" math="0" shadow="0">
      <root>
        <mxCell id="0" />
        <mxCell id="1" parent="0" />
        <mxCell id="_R_f2r7OtW2pIKe9szbV-1" value="线索" style="rounded=0;whiteSpace=wrap;html=1;dashed=1;" parent="1" vertex="1">
          <mxGeometry x="179" y="180" width="62" height="243" as="geometry" />
        </mxCell>
        <mxCell id="xltC5sz9a1VHCmezbFZa-4" value="商机" style="rounded=0;whiteSpace=wrap;html=1;" vertex="1" parent="1">
          <mxGeometry x="303" y="180" width="62" height="243" as="geometry" />
        </mxCell>
        <mxCell id="xltC5sz9a1VHCmezbFZa-6" value="" style="shape=image;verticalLabelPosition=bottom;labelBackgroundColor=default;verticalAlign=top;aspect=fixed;imageAspect=0;image=data:image/png,iVBORw0KGgoAAAANSUhEUgAAAMgAAADICAYAAACtWK6eAAAAAXNSR0IArs4c6QAADbZJREFUeF7tnfmTXUUVx08PP+QvsMQqqMIiFX6LVfe+DEVZ8SdKC6v8yWKCO7igouCCG7gkbnFHJaLGDdwVXBAVRcUFGNCZ7n6CEgmERUBAUCTGBSRz23ragVQyy73nnr7v9j3f93Of06c/53zqvumZec8QXiAAAisSMGADAiCwMgEIgukAgVUIQBCMBwhAEMwACPAI4AnC44YoJQQgiJJG45g8AhCExw1RSghAECWNxjF5BCAIjxuilBCAIEoajWPyCEAQHjdEKSEAQZQ0GsfkEYAgPG6IUkIAgihpNI7JIwBBeNwQpYQABFHSaByTRwCC8LghSgkBCKKk0TgmjwAE4XFDlBICEERJo3FMHgEIwuOGKCUEIIiSRuOYPAIQhMcNUUoIQBAljcYxeQQgCI8bopQQgCBKGo1j8ghAEB43RCkhAEGUNBrH5BGAIDxuiFJCAIIoaTSOySMAQXjcEKWEAARR0mgck0cAgvC4IUoJAQiipNE4Jo9A1oKUZfl0ItpIRE81xtxBRH7dunWXzs/P7+PhSBM1Go2eXVXVrDFmAxHNE9ENzrmfpNkNWSUJZCvIaDS6LITwrGVgLFRVde54PL5SEhQnV1EU640x3yCi8tD4EMJOY8x259ydnNyI6YZAloKUZbmHiI5dA9Gcc+6SbjAevktZlk8ionvW2H/XzMzM3OLi4o3TqhP7rk4gO0HKstxOROfUaWwIYYv3/uI6a6XXrPKEO3SrXcaYLdba30vXgHztCeQoyF1EdFTdo4cQTvHef7Pueol1RVGUxhjbINcfiGiLc+53DWKwtAMCWQkyOzu7YWlpaXdTLsaY51hrJz8LdPIqiuJ0Y8zOhpvdRESTt4WQpCG4lMuzEqQsy8nPHZOfPxq/upSkKIpTjTEXNi6SaHcIYc57fwMjFiEJCGQlyOT8ZVneTkTHcFgYY55rrf06J7ZJTFEUG40x1zeJOWjt7qqqtozHY248c1uELUcgR0HOJ6IzW7Tzec65r7WIrxValuVVRLS51uLDF91cVdUcJGHSEwzLTpBNmzYdWVXV1US0nsshhPB87/1XufF14kaj0UkhhMvrrF1hzS3xCvi3LXIgtCWB7ASJb7NOJqJW17ddSFIUxTZjzNYWPbolXgGPW+RAaAsCWQoiKMkLvPdfacFvzVABSSaXEpMrYL/mZlggTiBbQaQkMca80Fr7ZXGyByUUkOTWeAUMSVI2apncWQuiTJLb4hWw63hGVG+XvSCCkrzIWvullNMg8CS5LV4BN/ktfcojDT73IASRkoSITnXOfTFl1wUkuX1mZmbL4uLiYso6kfv/BAYjiJQkIYTTvPcXpRwQAUnuiFfAkCRlo4YmiDZJ4hXwQuIZUZ1+UE+QA50sy1Li9yQv9t5z/p6q9kAJPEn+GK+Af1N7UyxsRGCQgkg9SYwxL7HWfqER0YaLBSSZ/Efi5K+AIUlD9nWWD1YQQUleaq39fB2Y3DUCktwVr4B/za0BccsTGLQg2iSJV8DXYdjlCAxeEClJiOhlzrnPyaE/PJPAk+TueAV8bco6NeVWIYiUJCGE0733n005IAKS/CleAUMSgUapEUSZJPcYY+astZPP4MKrBQFVgghK8nLv/WdacF8zVOBJMvnIoclfAV+z5mZYsCIBdYJISWKMeYW1tukHMzQaRQFJ7o1XwJCkEfnHF6sUREoSInqlc+7TTPa1wgQkuS9eAU/+CxOvhgTUCqJNkngFPPk/ebwaEFAtiKAkZzjnPtWAe+OlAk+SP8cr4F813lxxgHpBBCV5lXPukylnSUCS++MVMCSp2SgIEkFJ/IEjEeUgyQPxCviXNWdE9TIIclD7JSQJIbzae39ByqkSeJI8EK+Af5GyziHkhiCHdFFCEmPMmdbaT6QcEAFJ/hKvgCHJKo2CIMvAkZCEiM5yzu3ouSR/jVfAP09ZZ865IcgK3VMkyYPxY06n/o1cfRQJgqzSFSFJXuOcm3yecLKXwNutB+MV8M+SFZlpYgiyRuOEJHmtc+7jKWdEQJK/xStgSHJQoyBIjalVJMlD8Qr4pzWwqFgCQWq2WUKSEMLrvPcfq7kla5nAk+SheAWMr6ke4sf+sKaqZpCEJMaY11trP1pzS9YyAUn2xitg9ZLgCdJwBCUkIaKznXPnNdy60XIBSf4er4CvaLTxwBZDEEZDFUmyL0ryYwamQYRAEGYbhSR5g3PuI8wSaoUJPEn2xU9w/FGtDQe2CIK0aKiQJG90zn24RRlrhgpI8o94u6VOEgiy5nitvkBCkhDCm7z3H2pZyqrhApL8M0rS5nsXUx4xSW4IIoBVkyTxCviHAtiySAFBhNokIYkx5s3W2g8KlbRsGoEnyb9CCFu89z9IWWdfckMQwU5ISEJEb3HOfUCwrMNSCUjy73i7NXhJIIjwJCqS5OEoyfeFEfYqHQRJ0A4hSc5xzr0/QXmPpRR4kjwcr4AvS1nnNHNDkET0hSQ51zn3vkQl/i+tgCSPxNutQUoCQRJOn4QkIYS3eu+3JyxTQpL/REm+l7LOaeSGIImpK5Lk0fgHjpcmRtppegjSAW4JSYwxb7PWvjdluQJvtx6NV8DfTVlnl7khSEe0JSQhorc7596TsmQBSfbH261BSAJBUk7bIbkVSbIUJflOh3iTbAVBkmBdOamQJO9wzr07ZekCT5KleAX87ZR1ps4NQVITXia/kCRbnXPvSlm+gCRVvN3KVhIIknLCVsktIUkIYZv3/p0pjyAgSYiSfCtlnalyQ5BUZGvkVSTJhMacc+6SGlh6tQSCTLkdEpIYY55prU36z0wCT5I9MzMzmxcXF++bMvJG20OQRrjSLBaQ5Grn3NPSVPd4VgFJdjjnzkpdp2R+CCJJs0WutpKEEEbee9eihFqhLSW52zl3dK2NerIIgvSkEZMy2kgSQkj+1dQHULWR5IgjjjhuYWHh5h5hX7UUCNKjTrUU5DTv/UVdHKeNIES03jl3axd1SuwBQSQoCuRoI8dk+xDCU7z3NwiUsmqKlnLc4Zx7cuoaJfNDEEmazFxt5TDGXGmtPZG5fe2wlnJM9jnPOXd27Q17sBCCTLkJbeUgoskHu51orV1IeRQBOa7Zu3fviXv27HkkZZ3SuSGINNEG+QTkmOyW/BdwAnLcGL/FalcDPL1YCkGm1AbIMSXwDbeFIA2BSSyHHBIUu8kBQbrh/NgukKNj4C23gyAtATYJhxxNaPVjLQTpqA+QoyPQwttAEGGgy6WDHB1ATrQFBEkE9kBayJEYcOL0ECQhYMiREG5HqSFIItCQIxHYjtNCkATAIUcCqFNKCUGEwUMOYaBTTgdBBBsAOQRh9iQVBBFqBOQQAtmzNBBEoCGQQwBiT1NAkJaNgRwtAfY8HIK0aBDkaAEvk1AIwmwU5GCCyywMgjAaBjkY0DINgSANGwc5GgLLfDkEadBAyNEA1kCWQpCajYQcNUENbBkEqdFQyFED0kCXQJA1Ggs5Bjr5NY8FQVYBBTlqTtGAl0GQFZoLOQY89Q2OBkGWgQU5GkzQwJdCkEMaDDkGPvENjwdBDgIGORpOj4LlECQ2GXIomHbGESFIy68+O4g5PmWdMYB9D1EvCJ4cfR/R6danWhDIMd3hy2F3tYJAjhzGc/o1qhQEckx/8HKpQJ0gkCOX0exHnaoEgRz9GLqcqlAjCOTIaSz7U6sKQSBHfwYut0oGLwjkyG0k+1XvoAWBHP0athyrGawgkCPHcexfzYMUBHL0b9ByrWhwgkCOXEexn3UPShDI0c8hy7mqwQgCOXIew/7WPghBIEd/Byz3yrIXBHLkPoL9rj9rQSBHv4drCNVlKwjkGML49f8MWQqSkRxbjTHbWozBjVVVzY3H410tciC0BYHsBNm0adORVVVdTUTrW5w7+QcsjEajk0IIl7eoEXK0gCcVmp0gZVmeT0RntgCQXI5JbWVZXkVEm5l1Qg4mOOmwHAW5i4iOYoLoRI6iKEpjjGXWCDmY4FKEZSXI7OzshqWlpd1MEJ3IMamtKIrTjTE7GXVCDga0lCFZCVKW5bFEtIcBpDM5oiCnGmMubFgn5GgIrIvlWQkS39vfTkTHNIDTqRxRkI3GmOsb1Ag5GsDqcmmOglxARGfUhNS5HAfqGo1G14YQTqhRJ+SoAWlaS7ITJD5F7ieiJ6wBbWpyTOoajUbHhRBuWqNGyDGtya+5b5aCxLcx24wxW5c550JVVeeOx+MrazJItuz4449/4v79+3cQ0cmHbhJC2GmM2e6cuzNZAUjcmkC2gkRJnkFEJ8zMzBREdC8RLaxbt+7i+fn5fa3JCCYYjUanhBA2G2OOrqrKE9F13vsrBLdAqkQEshYkEROkBYHHCEAQDAMIrEIAgmA8QACCYAZAgEcATxAeN0QpIQBBlDQax+QRgCA8bohSQgCCKGk0jskjAEF43BClhAAEUdJoHJNHAILwuCFKCQEIoqTROCaPAAThcUOUEgIQREmjcUweAQjC44YoJQQgiJJG45g8AhCExw1RSghAECWNxjF5BCAIjxuilBCAIEoajWPyCEAQHjdEKSEAQZQ0GsfkEYAgPG6IUkIAgihpNI7JIwBBeNwQpYQABFHSaByTRwCC8LghSgkBCKKk0TgmjwAE4XFDlBICEERJo3FMHgEIwuOGKCUEIIiSRuOYPAIQhMcNUUoIQBAljcYxeQQgCI8bopQQ+C9dXv8jWRKgLQAAAABJRU5ErkJggg==;" vertex="1" parent="1">
          <mxGeometry x="257" y="214" width="30" height="30" as="geometry" />
        </mxCell>
        <mxCell id="xltC5sz9a1VHCmezbFZa-15" value="获取线索/商机途径" style="rounded=0;whiteSpace=wrap;html=1;verticalAlign=top;" vertex="1" parent="1">
          <mxGeometry x="-74" y="176" width="126" height="258" as="geometry" />
        </mxCell>
        <mxCell id="xltC5sz9a1VHCmezbFZa-8" value="" style="shape=image;verticalLabelPosition=bottom;labelBackgroundColor=default;verticalAlign=top;aspect=fixed;imageAspect=0;image=data:image/png,iVBORw0KGgoAAAANSUhEUgAAAMgAAADICAYAAACtWK6eAAAAAXNSR0IArs4c6QAADbZJREFUeF7tnfmTXUUVx08PP+QvsMQqqMIiFX6LVfe+DEVZ8SdKC6v8yWKCO7igouCCG7gkbnFHJaLGDdwVXBAVRcUFGNCZ7n6CEgmERUBAUCTGBSRz23ragVQyy73nnr7v9j3f93Of06c/53zqvumZec8QXiAAAisSMGADAiCwMgEIgukAgVUIQBCMBwhAEMwACPAI4AnC44YoJQQgiJJG45g8AhCExw1RSghAECWNxjF5BCAIjxuilBCAIEoajWPyCEAQHjdEKSEAQZQ0GsfkEYAgPG6IUkIAgihpNI7JIwBBeNwQpYQABFHSaByTRwCC8LghSgkBCKKk0TgmjwAE4XFDlBICEERJo3FMHgEIwuOGKCUEIIiSRuOYPAIQhMcNUUoIQBAljcYxeQQgCI8bopQQgCBKGo1j8ghAEB43RCkhAEGUNBrH5BGAIDxuiFJCAIIoaTSOySMAQXjcEKWEAARR0mgck0cAgvC4IUoJAQiipNE4Jo9A1oKUZfl0ItpIRE81xtxBRH7dunWXzs/P7+PhSBM1Go2eXVXVrDFmAxHNE9ENzrmfpNkNWSUJZCvIaDS6LITwrGVgLFRVde54PL5SEhQnV1EU640x3yCi8tD4EMJOY8x259ydnNyI6YZAloKUZbmHiI5dA9Gcc+6SbjAevktZlk8ionvW2H/XzMzM3OLi4o3TqhP7rk4gO0HKstxOROfUaWwIYYv3/uI6a6XXrPKEO3SrXcaYLdba30vXgHztCeQoyF1EdFTdo4cQTvHef7Pueol1RVGUxhjbINcfiGiLc+53DWKwtAMCWQkyOzu7YWlpaXdTLsaY51hrJz8LdPIqiuJ0Y8zOhpvdRESTt4WQpCG4lMuzEqQsy8nPHZOfPxq/upSkKIpTjTEXNi6SaHcIYc57fwMjFiEJCGQlyOT8ZVneTkTHcFgYY55rrf06J7ZJTFEUG40x1zeJOWjt7qqqtozHY248c1uELUcgR0HOJ6IzW7Tzec65r7WIrxValuVVRLS51uLDF91cVdUcJGHSEwzLTpBNmzYdWVXV1US0nsshhPB87/1XufF14kaj0UkhhMvrrF1hzS3xCvi3LXIgtCWB7ASJb7NOJqJW17ddSFIUxTZjzNYWPbolXgGPW+RAaAsCWQoiKMkLvPdfacFvzVABSSaXEpMrYL/mZlggTiBbQaQkMca80Fr7ZXGyByUUkOTWeAUMSVI2apncWQuiTJLb4hWw63hGVG+XvSCCkrzIWvullNMg8CS5LV4BN/ktfcojDT73IASRkoSITnXOfTFl1wUkuX1mZmbL4uLiYso6kfv/BAYjiJQkIYTTvPcXpRwQAUnuiFfAkCRlo4YmiDZJ4hXwQuIZUZ1+UE+QA50sy1Li9yQv9t5z/p6q9kAJPEn+GK+Af1N7UyxsRGCQgkg9SYwxL7HWfqER0YaLBSSZ/Efi5K+AIUlD9nWWD1YQQUleaq39fB2Y3DUCktwVr4B/za0BccsTGLQg2iSJV8DXYdjlCAxeEClJiOhlzrnPyaE/PJPAk+TueAV8bco6NeVWIYiUJCGE0733n005IAKS/CleAUMSgUapEUSZJPcYY+astZPP4MKrBQFVgghK8nLv/WdacF8zVOBJMvnIoclfAV+z5mZYsCIBdYJISWKMeYW1tukHMzQaRQFJ7o1XwJCkEfnHF6sUREoSInqlc+7TTPa1wgQkuS9eAU/+CxOvhgTUCqJNkngFPPk/ebwaEFAtiKAkZzjnPtWAe+OlAk+SP8cr4F813lxxgHpBBCV5lXPukylnSUCS++MVMCSp2SgIEkFJ/IEjEeUgyQPxCviXNWdE9TIIclD7JSQJIbzae39ByqkSeJI8EK+Af5GyziHkhiCHdFFCEmPMmdbaT6QcEAFJ/hKvgCHJKo2CIMvAkZCEiM5yzu3ouSR/jVfAP09ZZ865IcgK3VMkyYPxY06n/o1cfRQJgqzSFSFJXuOcm3yecLKXwNutB+MV8M+SFZlpYgiyRuOEJHmtc+7jKWdEQJK/xStgSHJQoyBIjalVJMlD8Qr4pzWwqFgCQWq2WUKSEMLrvPcfq7kla5nAk+SheAWMr6ke4sf+sKaqZpCEJMaY11trP1pzS9YyAUn2xitg9ZLgCdJwBCUkIaKznXPnNdy60XIBSf4er4CvaLTxwBZDEEZDFUmyL0ryYwamQYRAEGYbhSR5g3PuI8wSaoUJPEn2xU9w/FGtDQe2CIK0aKiQJG90zn24RRlrhgpI8o94u6VOEgiy5nitvkBCkhDCm7z3H2pZyqrhApL8M0rS5nsXUx4xSW4IIoBVkyTxCviHAtiySAFBhNokIYkx5s3W2g8KlbRsGoEnyb9CCFu89z9IWWdfckMQwU5ISEJEb3HOfUCwrMNSCUjy73i7NXhJIIjwJCqS5OEoyfeFEfYqHQRJ0A4hSc5xzr0/QXmPpRR4kjwcr4AvS1nnNHNDkET0hSQ51zn3vkQl/i+tgCSPxNutQUoCQRJOn4QkIYS3eu+3JyxTQpL/REm+l7LOaeSGIImpK5Lk0fgHjpcmRtppegjSAW4JSYwxb7PWvjdluQJvtx6NV8DfTVlnl7khSEe0JSQhorc7596TsmQBSfbH261BSAJBUk7bIbkVSbIUJflOh3iTbAVBkmBdOamQJO9wzr07ZekCT5KleAX87ZR1ps4NQVITXia/kCRbnXPvSlm+gCRVvN3KVhIIknLCVsktIUkIYZv3/p0pjyAgSYiSfCtlnalyQ5BUZGvkVSTJhMacc+6SGlh6tQSCTLkdEpIYY55prU36z0wCT5I9MzMzmxcXF++bMvJG20OQRrjSLBaQ5Grn3NPSVPd4VgFJdjjnzkpdp2R+CCJJs0WutpKEEEbee9eihFqhLSW52zl3dK2NerIIgvSkEZMy2kgSQkj+1dQHULWR5IgjjjhuYWHh5h5hX7UUCNKjTrUU5DTv/UVdHKeNIES03jl3axd1SuwBQSQoCuRoI8dk+xDCU7z3NwiUsmqKlnLc4Zx7cuoaJfNDEEmazFxt5TDGXGmtPZG5fe2wlnJM9jnPOXd27Q17sBCCTLkJbeUgoskHu51orV1IeRQBOa7Zu3fviXv27HkkZZ3SuSGINNEG+QTkmOyW/BdwAnLcGL/FalcDPL1YCkGm1AbIMSXwDbeFIA2BSSyHHBIUu8kBQbrh/NgukKNj4C23gyAtATYJhxxNaPVjLQTpqA+QoyPQwttAEGGgy6WDHB1ATrQFBEkE9kBayJEYcOL0ECQhYMiREG5HqSFIItCQIxHYjtNCkATAIUcCqFNKCUGEwUMOYaBTTgdBBBsAOQRh9iQVBBFqBOQQAtmzNBBEoCGQQwBiT1NAkJaNgRwtAfY8HIK0aBDkaAEvk1AIwmwU5GCCyywMgjAaBjkY0DINgSANGwc5GgLLfDkEadBAyNEA1kCWQpCajYQcNUENbBkEqdFQyFED0kCXQJA1Ggs5Bjr5NY8FQVYBBTlqTtGAl0GQFZoLOQY89Q2OBkGWgQU5GkzQwJdCkEMaDDkGPvENjwdBDgIGORpOj4LlECQ2GXIomHbGESFIy68+O4g5PmWdMYB9D1EvCJ4cfR/R6danWhDIMd3hy2F3tYJAjhzGc/o1qhQEckx/8HKpQJ0gkCOX0exHnaoEgRz9GLqcqlAjCOTIaSz7U6sKQSBHfwYut0oGLwjkyG0k+1XvoAWBHP0athyrGawgkCPHcexfzYMUBHL0b9ByrWhwgkCOXEexn3UPShDI0c8hy7mqwQgCOXIew/7WPghBIEd/Byz3yrIXBHLkPoL9rj9rQSBHv4drCNVlKwjkGML49f8MWQqSkRxbjTHbWozBjVVVzY3H410tciC0BYHsBNm0adORVVVdTUTrW5w7+QcsjEajk0IIl7eoEXK0gCcVmp0gZVmeT0RntgCQXI5JbWVZXkVEm5l1Qg4mOOmwHAW5i4iOYoLoRI6iKEpjjGXWCDmY4FKEZSXI7OzshqWlpd1MEJ3IMamtKIrTjTE7GXVCDga0lCFZCVKW5bFEtIcBpDM5oiCnGmMubFgn5GgIrIvlWQkS39vfTkTHNIDTqRxRkI3GmOsb1Ag5GsDqcmmOglxARGfUhNS5HAfqGo1G14YQTqhRJ+SoAWlaS7ITJD5F7ieiJ6wBbWpyTOoajUbHhRBuWqNGyDGtya+5b5aCxLcx24wxW5c550JVVeeOx+MrazJItuz4449/4v79+3cQ0cmHbhJC2GmM2e6cuzNZAUjcmkC2gkRJnkFEJ8zMzBREdC8RLaxbt+7i+fn5fa3JCCYYjUanhBA2G2OOrqrKE9F13vsrBLdAqkQEshYkEROkBYHHCEAQDAMIrEIAgmA8QACCYAZAgEcATxAeN0QpIQBBlDQax+QRgCA8bohSQgCCKGk0jskjAEF43BClhAAEUdJoHJNHAILwuCFKCQEIoqTROCaPAAThcUOUEgIQREmjcUweAQjC44YoJQQgiJJG45g8AhCExw1RSghAECWNxjF5BCAIjxuilBCAIEoajWPyCEAQHjdEKSEAQZQ0GsfkEYAgPG6IUkIAgihpNI7JIwBBeNwQpYQABFHSaByTRwCC8LghSgkBCKKk0TgmjwAE4XFDlBICEERJo3FMHgEIwuOGKCUEIIiSRuOYPAIQhMcNUUoIQBAljcYxeQQgCI8bopQQ+C9dXv8jWRKgLQAAAABJRU5ErkJggg==;" vertex="1" parent="1">
          <mxGeometry x="257" y="356" width="30" height="30" as="geometry" />
        </mxCell>
        <mxCell id="xltC5sz9a1VHCmezbFZa-9" value="客户" style="rounded=0;whiteSpace=wrap;html=1;" vertex="1" parent="1">
          <mxGeometry x="-58" y="202" width="89" height="38" as="geometry" />
        </mxCell>
        <mxCell id="xltC5sz9a1VHCmezbFZa-10" value="商户" style="rounded=0;whiteSpace=wrap;html=1;" vertex="1" parent="1">
          <mxGeometry x="-58" y="296" width="89" height="38" as="geometry" />
        </mxCell>
        <mxCell id="xltC5sz9a1VHCmezbFZa-11" value="工程" style="rounded=0;whiteSpace=wrap;html=1;" vertex="1" parent="1">
          <mxGeometry x="-58" y="249" width="89" height="38" as="geometry" />
        </mxCell>
        <mxCell id="xltC5sz9a1VHCmezbFZa-12" value="其他渠道" style="rounded=0;whiteSpace=wrap;html=1;" vertex="1" parent="1">
          <mxGeometry x="-58" y="390" width="89" height="38" as="geometry" />
        </mxCell>
        <mxCell id="xltC5sz9a1VHCmezbFZa-16" value="SEO/SEM" style="rounded=0;whiteSpace=wrap;html=1;" vertex="1" parent="1">
          <mxGeometry x="-58" y="340" width="89" height="38" as="geometry" />
        </mxCell>
        <mxCell id="xltC5sz9a1VHCmezbFZa-19" value="" style="endArrow=block;html=1;rounded=0;strokeWidth=4;endFill=1;strokeColor=#999999;" edge="1" parent="1">
          <mxGeometry relative="1" as="geometry">
            <mxPoint x="69" y="304" as="sourcePoint" />
            <mxPoint x="164" y="304" as="targetPoint" />
          </mxGeometry>
        </mxCell>
        <mxCell id="xltC5sz9a1VHCmezbFZa-20" value="项目合同" style="rounded=0;whiteSpace=wrap;html=1;" vertex="1" parent="1">
          <mxGeometry x="303" y="536" width="62" height="243" as="geometry" />
        </mxCell>
        <mxCell id="xltC5sz9a1VHCmezbFZa-22" value="" style="shape=image;verticalLabelPosition=bottom;labelBackgroundColor=default;verticalAlign=top;aspect=fixed;imageAspect=0;image=data:image/png,iVBORw0KGgoAAAANSUhEUgAAAMgAAADICAYAAACtWK6eAAAAAXNSR0IArs4c6QAADuJJREFUeF7tnVmQJUUVhk/eIEJeDN4MjCB8cYIHfZqqol/QJwkCHiQwjGn2fRlg2HeGZQaXQUTFFQH3fQFFGQVRcMNRh87McVcEFHcQd1xGsDuNgmxtmu7OqsxTdbPq/Pe18tTN85386lRl971XEV4gAAKrElBgAwIgsDoBCILVAQJrEIAgWB4gAEGwBkAgjgA6SBw3RAkhAEGEFBppxhGAIHHcECWEAAQRUmikGUcAgsRxQ5QQAhBESKGRZhwBCBLHDVFCCEAQIYVGmnEEIEgcN0QJIQBBhBQaacYRgCBx3BAlhAAEEVJopBlHAILEcUOUEAIQREihkWYcAQgSxw1RQghAECGFRppxBCBIHDdECSEAQYQUGmnGEYAgcdwQJYQABBFSaKQZRwCCxHFDlBACEERIoZFmHAEIEscNUUIIQBAhhUaacQQgSBw3RAkhAEGEFBppxhGAIHHcECWEAAQRUmikGUcAgsRxQ5QQAhBESKGRZhwBCBLHDVFCCEAQIYVGmnEEIEgcN0QJIQBBhBQaacYRgCBx3BAlhAAEEVJopBlHAILEcUOUEAIQREihkWYcgewFmZmZ2Xd+fn7eGPNQXIqIypHAUOqarSBlWW4jomOIaB9f4IeJaPtkMtk2Nzf3SI5Fx5zWJrDffvvtvbCwsJmIXrGsrncYYzblyC9LQcqyfJCIXrgKsPrYZmPMLTkCxZxWJlCW5QYiqi9661Zh9Jgx5nm58ctOkKqqbnfOvbwBqFlI0oBSBkO8HJ8MTcU5d7W1dmtoXJ/HsxKkLMsDieiuFgAgSQtY0xjaVI7FuTnnDrLWtlkDnaaVmyAXEtF1LTOGJC2B9TW8rRz1vHLrIrkJchsRHRpRQEgSAa3LkBg56vkopbZrrQ/pcm5tzp2VIFVVXe+cO7dNAkvGQpJIcNxhsXJ4QW7WWm/knlPs+XIT5Bjn3AdjkyEiSJIAjyM0RQ4vyMla6/dwzIXjHFkJsv/++z939+7ddxPRTEJykCQBXkpoqhxEdN+ee+55wI4dOx5PmQdnbFaC1ImtX7/+ZZPJpJYk5QVJUuhFxDLIQQsLCwfs2rXrnoi37ywkO0HqTDlg43arszXzrBOPuV5ZClJXoCiKWaXUJxLLjE6SCDAUziGHc+4wa23wD4mhuXRxPFtBvCSHKaU+npg4JEkEuFo4kxyHW2tTL4QdZUiUtSB11lVVHe6c+1giAUiSCHB5OIccSqkjtNapF0DmzJ55uuwFgSSd1j/q5FLkqOEMQhAvyRHOuY9GVfT/QegkiQCZ5DhSa516V5CYSbPwwQjid7eOJKKPNEtt1VGQJBIghxxEdJQxJvVCF5lB+7BBCeIf3I9SSn24farPiIAkLQFyyOGcO9pam3qBaznztOGDEwSSpBU8JlqqHIN6Blle2KIojlZKfSim4Eti0EkCAJnkOMZam9r1E0sdFz7IDrKYalVVqf/cWJ8KkqyydjjkUEodq7VOvZDFrW6GqEELUucPSRhWwQqngBxPQxm8IF6SY51zH0hcKugkHiCTHMdprVM+upBYTp7wUQhSoyjL8jgien8iFvGScMhBRMcbY1IvWIml5AkfjSB+d+t4pdT7EtGIlYRDDufcCdba1AtVYgn5wkclCCSJXxiQY2V2oxPES3KCUuq98cvlqUgxnYRJjhOttandO7Fk/OGjFMQ/uJ/onEv9bPPoJeGQQyl1ktY69YLEv7oZzjhaQbwkJznn3p3IabSSQI7wyhi1IJBk9QXAJEdW30ASXu7tR4xeEL8FfDIRvas9nmdEjKaTcMhBRKcYY1K7c2JJug8XIYh/cD9FKXVzItLBS8Ihh3PuVGtt6gUnsRT9hIsRBJLwfFuMJDnqNSNKEC/JqUqpmxKvP4PrJEydY6O1NrULJ6LvN1ycIP7BfaNz7sZE1IORhEMOpdRpWuvUC0si8v7DRQriH9xPI6J3JiLPXhLIkVZhsYJIkIRDDiI63RiT2m3TVukUo0UL4iU5nYhuSKxBdp2ESY4zjDGpXTYR7XTDxQviJTmDiN6RWIpsJGGSY5MxJvXCkYh0+uEQxNegLMtRSAI5eKWCIEt4FkWxSSn19kTEU+skHHI458601qZ200SE+YRnLUhRFGX9YUEieoKIrLX2e12jq6rqTOfc2xLfp3dJOORQSp2ltU69QATRTaOuwUmtMiBLQcqyfH79x7wVfi/9XqXUNVrrO2MTbhJXluVZRPTWJmPXGNObJEORo6qqg51zlxHRS5dyU0p9i4hO0Frfn8icPTw7QYqiWKeUemCtTPv4qeChSMIhBxGdbYxJ7ZprLs6iKLYqpbasNWiPPfbYe+fOnY+yr/KEE2YnSFmW2t9WrZlWT5KcTURvSeBbh3bWSZjkOMcYk9otk+XwJ7jFGDObyJs1PCtBqqp6pXPu1qYZ9iTJOUT05qZzWmUcuyRMcpxrjEm9AHDJ8dR5cvvNkKwEKYriWqXUxW0Wo0RJxiqHr/sNxphNbdZAl2OzEqQsy9uI6NC2CfchSVEU5yqlrm87t2XjkzsJhxzOufOstaldkbVzLJ5MKbVda31IIme28NwEuZCIrovJrg9Jqqo6zzn3ppj5LYmJloRDDqXU+VrrVNE7kaM+aR91bFO/3AQ5kIjuapPA0rF9wC3L8nwiemPsHH1ca0k45CCiC4wxqYJ3JocX5CBrbfQaSKzLs8KzEqSeXVEUNyqlNsYmOkZJBMlxk7W2/hhCNq/sBCnL8gVEdAcRvTiWUk+SXEBEb4idY9NOwiTHhcaY1K7Xaecgoh8R0cHGmF8mMmUNz06QOrv169e/aDKZ1D8sn7sk0c9MTZ5JmOS4yBiTKnLnckwmk9m5ubkfsq5uhpNlKciQJCmK4iKl1OsTa/GsZxJBcvxYKTWrtf5BIsNOwrMVRLIkHHI45y621kbtCDZdaU3+fSRwrp/4/zT4ftP37Htc1oIMSZKqqi52zl2bWMDFf7Ooby+jX0qpS7TWqV2t69uq7OWoAWQvyJAkKcvyEiJ6XfTK5gm81BiTKmrXctzvnJvt4+MLqUgHIQgkaVzmIcjx04WFhdldu3Z9t3FWUxw4GEEGJsmlRHRNz3W9zBjTafdieOZ4YGFhYcNQ5BjMLdbShTagLeD6g0HbepJkszGmUyE55PBbud/piQnL2wyqgyxmPBRJiqLYrJR6LUulVjmJc+5ya22nIjLI8aDfyt3VJYsuzj1IQYZ0u9WlJAOR4yG/lWu7WMBdn3OwggxJkqqqLnfOvYazmEqpK7TWnXYnhs7xMyLaYIwZpByDfAZZvsiGcrtVluUVRPRqJkmuNMawCrd8Xhxy+K1cw5TzVE4z6A4ytGcSJkmGIMfP/VZu/f0Cg36NQpAh3W6VZXklEb0qctVcZYzh6kIrToGhczzst3IHL8cobrEGugV8FRFd3VKSLcaYWLEavRWHHH4rd67RGw5g0Gg6yNBut4qi2KKU2tpkjTjntlpr2wrV5NT/G8Mgxy/8Vu59rd4488GjE2RIt1tNJBmIHPWHnOp/2d+Z+XpvPb1RCjIkSVb7Ok4i6uVrVhk6x6/8Vu7o5BjdM8hQt4DreU/jC5055PBbud9ufWkeSMBoOwjzM0nnzwB9rxcGOX7tt3LrL54e7Wv0gjDebo1GEgY5fuO3ckctx+hvsTrYAh68JAxy/HYymWyYm5v75mjbxpLERHQQ3G49TYBDDr+Vu0OCHKI6iHRJGOT4nd/K/YYUOUQKIvGZhEGOR/xWrig5xAoiSRIOOfxW7r2SOsdirqKeQTr6O0m2D+4Mcjzqt3K/LlEO0R1k7M8kDHL83m/lipUDgnhLmD50lU0nYZDjMb+V+zWpnQO3WMsqPxZJOOTwW7lflS4HOsjIJGGQ4w9+K/crkONpAqIf0ldaBEPtJAxy/NFv5UIOqX9Jb3pVHJokHHL4rdwvN2UkZRw6yCqVHookDHL8yW/l3iNl0bfJE4KsQSt3SRjk+LP/DPndbRaNpLEQJFDtXCVhkOMvfisXcqyxBiBIg8thbpJwyOG3cr/UIH3RQyBIw/LnIgmDHH/1W7lfbJi66GEQpEX5py0Jgxx/81u5kKNh3SFIQ1CLw6YlCYMcjzvnNlhr72qZsujhECSi/H1LwiRH/ZuAX4hIV3QIBIksf1+SMMjxd/9AfmdkqqLDIEhC+buWhEGOfyilNmitIUdknSFIJLiun0mY5JjVWt+RmKLocAjCUH7uTsIgxz/9Vu7nGdITfQoIwlR+Jkme+gZ3pdSWhGn9y2/lQo4EiIuhEIQBIuftVuJ0dvut3M8lngfhngAEYV4KHJ0kckq1HPVW7vbIeIStQACCdLAspiDJv/1W7u0dpCP6lBCko/L3KMkTfisXcnRQSwjSAdQen0me9HJ8tsM0RJ8agnRc/g47yZN+K/czHacg+vQQpIfydyDJf/wD+W09TF/0W0CQnsrPKMm838qFHD3UDoL0AJnxmaSWo97K/XSP0xb9VhCk5/IndJIFv5X7qZ6nLPrtIMgUyh8hifO7VZCj53pBkJ6Bx9xueTlundJURb8tBJli+X0nuYmIXrLKNB4kos3GmFumOE3Rbw1Bplz+devWPWevvfbaVv9Ng4j28dN5mIi2TyaTbXNzc/XPn+E1JQIQZErgV3rbmZmZfefn5+eNMQ9lNC3RU4EgosuP5EMEIEiIEI6LJgBBRJcfyYcIQJAQIRwXTQCCiC4/kg8RgCAhQjgumgAEEV1+JB8iAEFChHBcNAEIIrr8SD5EAIKECOG4aAIQRHT5kXyIAAQJEcJx0QQgiOjyI/kQAQgSIoTjoglAENHlR/IhAhAkRAjHRROAIKLLj+RDBCBIiBCOiyYAQUSXH8mHCECQECEcF00AgoguP5IPEYAgIUI4LpoABBFdfiQfIgBBQoRwXDQBCCK6/Eg+RACChAjhuGgCEER0+ZF8iAAECRHCcdEEIIjo8iP5EAEIEiKE46IJQBDR5UfyIQIQJEQIx0UTgCCiy4/kQwQgSIgQjosmAEFElx/JhwhAkBAhHBdNAIKILj+SDxGAICFCOC6aAAQRXX4kHyIAQUKEcFw0AQgiuvxIPkQAgoQI4bhoAhBEdPmRfIjAfwHy78gjJc1fwAAAAABJRU5ErkJggg==;" vertex="1" parent="1">
          <mxGeometry x="313.0000000000002" y="459" width="42.25" height="42.25" as="geometry" />
        </mxCell>
        <mxCell id="xltC5sz9a1VHCmezbFZa-23" value="签订项目合同" style="text;html=1;strokeColor=none;fillColor=none;align=center;verticalAlign=middle;whiteSpace=wrap;rounded=0;" vertex="1" parent="1">
          <mxGeometry x="222" y="463" width="88" height="30" as="geometry" />
        </mxCell>
      </root>
    </mxGraphModel>
  </diagram>
</mxfile>
